<mxfile host="app.diagrams.net" agent="Mozilla/5.0 (Windows NT 10.0; Win64; x64) AppleWebKit/537.36 (KHTML, like Gecko) Chrome/132.0.0.0 Safari/537.36" version="26.0.10">
  <diagram name="Page-1" id="Qu5lxoKFZUft0LCpE2Gh">
    <mxGraphModel dx="910" dy="1625" grid="1" gridSize="10" guides="1" tooltips="1" connect="1" arrows="1" fold="1" page="1" pageScale="1" pageWidth="850" pageHeight="1100" math="0" shadow="0">
      <root>
        <mxCell id="0" />
        <mxCell id="1" parent="0" />
        <mxCell id="3yWKyltUj08IBA6ax2Vb-28" value="" style="rounded=1;whiteSpace=wrap;html=1;" vertex="1" parent="1">
          <mxGeometry x="290" y="-20" width="130" height="250" as="geometry" />
        </mxCell>
        <mxCell id="3yWKyltUj08IBA6ax2Vb-32" style="edgeStyle=orthogonalEdgeStyle;rounded=0;orthogonalLoop=1;jettySize=auto;html=1;entryX=1;entryY=0.5;entryDx=0;entryDy=0;" edge="1" parent="1" source="3yWKyltUj08IBA6ax2Vb-22" target="3yWKyltUj08IBA6ax2Vb-25">
          <mxGeometry relative="1" as="geometry">
            <Array as="points">
              <mxPoint x="530" y="350" />
              <mxPoint x="530" y="170" />
            </Array>
          </mxGeometry>
        </mxCell>
        <mxCell id="3yWKyltUj08IBA6ax2Vb-22" value="" style="rounded=1;whiteSpace=wrap;html=1;" vertex="1" parent="1">
          <mxGeometry x="180" y="260" width="330" height="180" as="geometry" />
        </mxCell>
        <mxCell id="3yWKyltUj08IBA6ax2Vb-1" value="LLM" style="rounded=1;whiteSpace=wrap;html=1;" vertex="1" parent="1">
          <mxGeometry x="350" y="352.5" width="50" height="40" as="geometry" />
        </mxCell>
        <mxCell id="3yWKyltUj08IBA6ax2Vb-2" value="Fine&lt;div&gt;Tuning&lt;/div&gt;" style="text;html=1;align=center;verticalAlign=middle;resizable=0;points=[];autosize=1;strokeColor=none;fillColor=none;" vertex="1" parent="1">
          <mxGeometry x="440" y="355" width="60" height="40" as="geometry" />
        </mxCell>
        <mxCell id="3yWKyltUj08IBA6ax2Vb-9" value="Retrieval" style="html=1;verticalLabelPosition=bottom;align=center;labelBackgroundColor=#ffffff;verticalAlign=top;strokeWidth=2;strokeColor=#0080F0;shadow=0;dashed=0;shape=mxgraph.ios7.icons.looking_glass;" vertex="1" parent="1">
          <mxGeometry x="290" y="360" width="30" height="30" as="geometry" />
        </mxCell>
        <mxCell id="3yWKyltUj08IBA6ax2Vb-13" value="Vector&lt;div&gt;DB&lt;/div&gt;" style="shape=cylinder3;whiteSpace=wrap;html=1;boundedLbl=1;backgroundOutline=1;size=5.142857142857139;" vertex="1" parent="1">
          <mxGeometry x="200" y="350" width="60" height="45" as="geometry" />
        </mxCell>
        <mxCell id="3yWKyltUj08IBA6ax2Vb-17" value="" style="endArrow=classic;startArrow=classic;html=1;rounded=0;exitX=1;exitY=0.5;exitDx=0;exitDy=0;exitPerimeter=0;entryX=0;entryY=0.5;entryDx=0;entryDy=0;" edge="1" parent="1" source="3yWKyltUj08IBA6ax2Vb-13" target="3yWKyltUj08IBA6ax2Vb-1">
          <mxGeometry width="50" height="50" relative="1" as="geometry">
            <mxPoint x="290" y="400" as="sourcePoint" />
            <mxPoint x="340" y="350" as="targetPoint" />
          </mxGeometry>
        </mxCell>
        <mxCell id="3yWKyltUj08IBA6ax2Vb-18" value="" style="endArrow=classic;html=1;rounded=0;entryX=0.311;entryY=-0.044;entryDx=0;entryDy=0;entryPerimeter=0;exitX=0.75;exitY=0;exitDx=0;exitDy=0;curved=1;" edge="1" parent="1" source="3yWKyltUj08IBA6ax2Vb-1" target="3yWKyltUj08IBA6ax2Vb-2">
          <mxGeometry width="50" height="50" relative="1" as="geometry">
            <mxPoint x="290" y="400" as="sourcePoint" />
            <mxPoint x="340" y="350" as="targetPoint" />
            <Array as="points">
              <mxPoint x="420" y="300" />
            </Array>
          </mxGeometry>
        </mxCell>
        <mxCell id="3yWKyltUj08IBA6ax2Vb-19" value="" style="endArrow=classic;html=1;rounded=0;entryX=0.311;entryY=-0.044;entryDx=0;entryDy=0;entryPerimeter=0;exitX=0.75;exitY=0;exitDx=0;exitDy=0;curved=1;" edge="1" parent="1">
          <mxGeometry width="50" height="50" relative="1" as="geometry">
            <mxPoint x="461.00000000000045" y="392.4999999999998" as="sourcePoint" />
            <mxPoint x="390.00000000000045" y="392.4999999999998" as="targetPoint" />
            <Array as="points">
              <mxPoint x="429.00000000000045" y="445.4999999999998" />
            </Array>
          </mxGeometry>
        </mxCell>
        <mxCell id="3yWKyltUj08IBA6ax2Vb-20" value="&lt;font style=&quot;font-size: 29px;&quot;&gt;DRAFT&lt;/font&gt;" style="text;html=1;align=center;verticalAlign=middle;resizable=0;points=[];autosize=1;strokeColor=none;fillColor=none;" vertex="1" parent="1">
          <mxGeometry x="280" y="270" width="120" height="50" as="geometry" />
        </mxCell>
        <mxCell id="3yWKyltUj08IBA6ax2Vb-31" style="edgeStyle=orthogonalEdgeStyle;rounded=0;orthogonalLoop=1;jettySize=auto;html=1;entryX=0;entryY=0.5;entryDx=0;entryDy=0;" edge="1" parent="1" source="3yWKyltUj08IBA6ax2Vb-24" target="3yWKyltUj08IBA6ax2Vb-22">
          <mxGeometry relative="1" as="geometry">
            <Array as="points">
              <mxPoint x="160" y="90" />
              <mxPoint x="160" y="350" />
            </Array>
          </mxGeometry>
        </mxCell>
        <mxCell id="3yWKyltUj08IBA6ax2Vb-24" value="## Context&lt;br&gt;We are building a AI powered web application. We need to decide which programming language to use" style="rounded=0;whiteSpace=wrap;html=1;align=left;" vertex="1" parent="1">
          <mxGeometry x="300" y="30" width="110" height="110" as="geometry" />
        </mxCell>
        <mxCell id="3yWKyltUj08IBA6ax2Vb-25" value="## Decision&lt;div&gt;We will use Python&lt;/div&gt;" style="rounded=0;whiteSpace=wrap;html=1;align=left;" vertex="1" parent="1">
          <mxGeometry x="300" y="150" width="110" height="40" as="geometry" />
        </mxCell>
        <mxCell id="3yWKyltUj08IBA6ax2Vb-26" value="&lt;b&gt;...&lt;/b&gt;" style="text;html=1;align=center;verticalAlign=middle;resizable=0;points=[];autosize=1;strokeColor=none;fillColor=none;" vertex="1" parent="1">
          <mxGeometry x="300" width="30" height="30" as="geometry" />
        </mxCell>
        <mxCell id="3yWKyltUj08IBA6ax2Vb-27" value="&lt;b&gt;...&lt;/b&gt;" style="text;html=1;align=center;verticalAlign=middle;resizable=0;points=[];autosize=1;strokeColor=none;fillColor=none;" vertex="1" parent="1">
          <mxGeometry x="300" y="190" width="30" height="30" as="geometry" />
        </mxCell>
        <mxCell id="3yWKyltUj08IBA6ax2Vb-29" value="ADR" style="text;html=1;align=center;verticalAlign=middle;resizable=0;points=[];autosize=1;strokeColor=none;fillColor=none;" vertex="1" parent="1">
          <mxGeometry x="330" y="-20" width="50" height="30" as="geometry" />
        </mxCell>
      </root>
    </mxGraphModel>
  </diagram>
</mxfile>
